<svg xmlns="http://www.w3.org/2000/svg" viewBox="0 0 24 24" id="Coding-Apps-Websites-Android--Streamline-Pixel" height="24" width="24"><desc>Coding Apps Websites Android Streamline Icon: https://streamlinehq.com</desc><title>coding-apps-websites-android</title><g><path d="M21.7125 11.43h1.1475v5.715h-1.1475Z" fill="#000000" stroke-width="0.75"></path><path d="m20.572499999999998 18.2925 1.1400000000000001 0 0 -1.1475 -1.1400000000000001 0 0 -5.715 1.1400000000000001 0 0 -1.1400000000000001 -1.1400000000000001 0 0 -2.2874999999999996 -1.1475 0 0 2.2874999999999996 -14.850000000000001 0 0 -2.2874999999999996 -1.1475 0 0 2.2874999999999996 -1.1400000000000001 0 0 1.1400000000000001 1.1400000000000001 0 0 5.715 -1.1400000000000001 0 0 1.1475 1.1400000000000001 0 0 1.1400000000000001 1.1475 0 0 -8.0025 14.850000000000001 0 0 8.0025 1.1475 0 0 -1.1400000000000001z" fill="#000000" stroke-width="0.75"></path><path d="M19.424999999999997 0h1.1475v1.1475H19.424999999999997Z" fill="#000000" stroke-width="0.75"></path><path d="M18.285 19.4325h1.1400000000000001v1.1400000000000001h-1.1400000000000001Z" fill="#000000" stroke-width="0.75"></path><path d="M18.285 5.715h1.1400000000000001v2.2874999999999996h-1.1400000000000001Z" fill="#000000" stroke-width="0.75"></path><path d="M18.285 1.1475h1.1400000000000001v1.1400000000000001h-1.1400000000000001Z" fill="#000000" stroke-width="0.75"></path><path d="M17.145 4.574999999999999h1.1400000000000001v1.1400000000000001h-1.1400000000000001Z" fill="#000000" stroke-width="0.75"></path><path d="M17.145 2.2874999999999996h1.1400000000000001v1.1475h-1.1400000000000001Z" fill="#000000" stroke-width="0.75"></path><path d="m15.997499999999999 22.86 1.1475 0 0 -1.1400000000000001 1.1400000000000001 0 0 -1.1475 -2.2874999999999996 0 0 2.2874999999999996z" fill="#000000" stroke-width="0.75"></path><path d="M14.857499999999998 3.435h2.2874999999999996V4.574999999999999h-2.2874999999999996Z" fill="#000000" stroke-width="0.75"></path><path d="M13.7175 22.86h2.2800000000000002V24h-2.2800000000000002Z" fill="#000000" stroke-width="0.75"></path><path d="m10.2825 20.572499999999998 0 2.2874999999999996 1.1475 0 0 -1.1400000000000001 1.1400000000000001 0 0 1.1400000000000001 1.1475 0 0 -2.2874999999999996 -3.435 0z" fill="#000000" stroke-width="0.75"></path><path d="M9.1425 2.2874999999999996h5.715v1.1475h-5.715Z" fill="#000000" stroke-width="0.75"></path><path d="M8.0025 22.86h2.2800000000000002V24h-2.2800000000000002Z" fill="#000000" stroke-width="0.75"></path><path d="M17.145 9.1425V6.862500000000001h-1.1475V5.715H8.0025v1.1475H6.855v2.2800000000000002Zm-3.4275 -2.2800000000000002h1.1400000000000001v1.1400000000000001h-1.1400000000000001Zm-4.574999999999999 0h1.1400000000000001v1.1400000000000001h-1.1400000000000001Z" fill="#000000" stroke-width="0.75"></path><path d="M6.855 3.435h2.2874999999999996V4.574999999999999H6.855Z" fill="#000000" stroke-width="0.75"></path><path d="m5.715 20.572499999999998 0 1.1475 1.1400000000000001 0 0 1.1400000000000001 1.1475 0 0 -2.2874999999999996 -2.2874999999999996 0z" fill="#000000" stroke-width="0.75"></path><path d="M5.715 4.574999999999999h1.1400000000000001v1.1400000000000001H5.715Z" fill="#000000" stroke-width="0.75"></path><path d="M5.715 2.2874999999999996h1.1400000000000001v1.1475H5.715Z" fill="#000000" stroke-width="0.75"></path><path d="M4.574999999999999 19.4325h1.1400000000000001v1.1400000000000001H4.574999999999999Z" fill="#000000" stroke-width="0.75"></path><path d="M4.574999999999999 5.715h1.1400000000000001v2.2874999999999996H4.574999999999999Z" fill="#000000" stroke-width="0.75"></path><path d="M4.574999999999999 1.1475h1.1400000000000001v1.1400000000000001H4.574999999999999Z" fill="#000000" stroke-width="0.75"></path><path d="M3.4275 0H4.574999999999999v1.1475H3.4275Z" fill="#000000" stroke-width="0.75"></path><path d="M1.1400000000000001 11.43h1.1475v5.715H1.1400000000000001Z" fill="#000000" stroke-width="0.75"></path></g></svg>