<svg xmlns="http://www.w3.org/2000/svg" viewBox="0 0 24 24" id="Content-Files-Pencil-Ruler--Streamline-Pixel" height="24" width="24"><desc>Content Files Pencil Ruler Streamline Icon: https://streamlinehq.com</desc><title>content-files-pencil-ruler</title><g><path d="M21.71625 11.43h1.1400000000000001v6.855h-1.1400000000000001Z" fill="#000000" stroke-width="0.75"></path><path d="M20.576249999999998 18.285h1.1400000000000001v1.1475h-1.1400000000000001Z" fill="#000000" stroke-width="0.75"></path><path d="M20.576249999999998 10.290000000000001h1.1400000000000001v1.1400000000000001h-1.1400000000000001Z" fill="#000000" stroke-width="0.75"></path><path d="M19.42875 12.57h1.1475v4.574999999999999h-1.1475Z" fill="#000000" stroke-width="0.75"></path><path d="m20.576249999999998 20.572499999999998 0 -1.1400000000000001 -2.2874999999999996 0 0 -1.1475 1.1400000000000001 0 0 -1.1400000000000001 -1.1400000000000001 0 0 -4.574999999999999 1.1400000000000001 0 0 -1.1400000000000001 -1.1400000000000001 0 0 -1.1400000000000001 2.2874999999999996 0 0 -1.1475 -2.2874999999999996 0 0 -1.1400000000000001 -1.1400000000000001 0 0 12.57 3.4275 0z" fill="#000000" stroke-width="0.75"></path><path d="M14.861250000000002 20.572499999999998h2.2874999999999996v1.1400000000000001h-2.2874999999999996Z" fill="#000000" stroke-width="0.75"></path><path d="M12.57375 21.7125h2.2874999999999996v1.1475h-2.2874999999999996Z" fill="#000000" stroke-width="0.75"></path><path d="m14.861250000000002 3.4275 0 -1.1400000000000001 -1.1475 0 0 -1.1475 -1.1400000000000001 0 0 1.1475 -1.1400000000000001 0 0 1.1400000000000001 3.4275 0z" fill="#000000" stroke-width="0.75"></path><path d="M11.43375 15.997499999999999h1.1400000000000001v1.1475h-1.1400000000000001Z" fill="#000000" stroke-width="0.75"></path><path d="M11.43375 13.7175h1.1400000000000001v1.1400000000000001h-1.1400000000000001Z" fill="#000000" stroke-width="0.75"></path><path d="M6.85875 22.86h5.715V24h-5.715Z" fill="#000000" stroke-width="0.75"></path><path d="M8.006250000000001 17.145h3.4275v1.1400000000000001h-3.4275Z" fill="#000000" stroke-width="0.75"></path><path d="M8.006250000000001 9.1425h-2.2874999999999996v1.1475h7.995v-1.1475h2.2874999999999996v-1.1400000000000001h1.1475V6.855h-1.1475V3.4275h-1.1400000000000001V4.574999999999999h-3.4275V3.4275h-1.1475v2.2874999999999996h-2.2800000000000002Zm5.7075000000000005 -3.4275h1.1475v2.2874999999999996h-1.1475Zm-2.2800000000000002 0h1.1400000000000001v3.4275h-1.1400000000000001Z" fill="#000000" stroke-width="0.75"></path><path d="M6.85875 15.997499999999999h1.1475v1.1475h-1.1475Z" fill="#000000" stroke-width="0.75"></path><path d="M6.85875 13.7175h1.1475v1.1400000000000001h-1.1475Z" fill="#000000" stroke-width="0.75"></path><path d="M6.85875 3.4275h1.1475v2.2874999999999996h-1.1475Z" fill="#000000" stroke-width="0.75"></path><path d="M4.57125 21.7125h2.2874999999999996v1.1475h-2.2874999999999996Z" fill="#000000" stroke-width="0.75"></path><path d="m6.85875 8.0025 0 -1.1475 -2.2874999999999996 0 0 1.1475 -1.1400000000000001 0 0 1.1400000000000001 2.2874999999999996 0 0 -1.1400000000000001 1.1400000000000001 0z" fill="#000000" stroke-width="0.75"></path><path d="M5.71875 1.1400000000000001h1.1400000000000001v2.2874999999999996h-1.1400000000000001Z" fill="#000000" stroke-width="0.75"></path><path d="M3.4312500000000004 0h2.2874999999999996v1.1400000000000001h-2.2874999999999996Z" fill="#000000" stroke-width="0.75"></path><path d="M2.2912500000000002 20.572499999999998h2.2800000000000002v1.1400000000000001h-2.2800000000000002Z" fill="#000000" stroke-width="0.75"></path><path d="M2.2912500000000002 1.1400000000000001h1.1400000000000001v1.1475h-1.1400000000000001Z" fill="#000000" stroke-width="0.75"></path><path d="m2.2912500000000002 8.0025 1.1400000000000001 0 0 -2.2874999999999996 1.1400000000000001 0 0 -1.1400000000000001 -2.2800000000000002 0 0 2.2800000000000002 -1.1475 0 0 13.7175 1.1475 0 0 -12.57z" fill="#000000" stroke-width="0.75"></path><path d="M1.1437499999999998 2.2874999999999996h1.1475V4.574999999999999h-1.1475Z" fill="#000000" stroke-width="0.75"></path></g></svg>