<svg xmlns="http://www.w3.org/2000/svg" viewBox="0 0 24 24" id="Email-Emoji-Smile-Smart--Streamline-Pixel" height="24" width="24"><desc>Email Emoji Smile Smart Streamline Icon: https://streamlinehq.com</desc><title>email-emoji-smile-smart</title><g><path d="M22.86 9.1425H24v5.715h-1.1400000000000001Z" fill="#000000" stroke-width="0.75"></path><path d="M21.7125 14.857499999999998h1.1475v2.2800000000000002h-1.1475Z" fill="#000000" stroke-width="0.75"></path><path d="M20.572499999999998 17.137500000000003h1.1400000000000001v2.2874999999999996h-1.1400000000000001Z" fill="#000000" stroke-width="0.75"></path><path d="M20.572499999999998 4.5675h1.1400000000000001v2.2874999999999996h-1.1400000000000001Z" fill="#000000" stroke-width="0.75"></path><path d="M19.4325 19.424999999999997h1.1400000000000001v1.1400000000000001h-1.1400000000000001Z" fill="#000000" stroke-width="0.75"></path><path d="M19.4325 3.4275h1.1400000000000001v1.1400000000000001h-1.1400000000000001Z" fill="#000000" stroke-width="0.75"></path><path d="M17.145 20.565h2.2874999999999996v1.1475h-2.2874999999999996Z" fill="#000000" stroke-width="0.75"></path><path d="M17.145 2.2800000000000002h2.2874999999999996v1.1475h-2.2874999999999996Z" fill="#000000" stroke-width="0.75"></path><path d="M14.857499999999998 21.7125h2.2874999999999996v1.1400000000000001h-2.2874999999999996Z" fill="#000000" stroke-width="0.75"></path><path d="M14.857499999999998 1.1400000000000001h2.2874999999999996v1.1400000000000001h-2.2874999999999996Z" fill="#000000" stroke-width="0.75"></path><path d="M9.1425 22.8525h5.715V24h-5.715Z" fill="#000000" stroke-width="0.75"></path><path d="M10.290000000000001 17.137500000000003h4.5675v1.1475h-4.5675Z" fill="#000000" stroke-width="0.75"></path><path d="M9.1425 0h5.715v1.1400000000000001h-5.715Z" fill="#000000" stroke-width="0.75"></path><path d="M9.1425 15.997499999999999h1.1475v1.1400000000000001h-1.1475Z" fill="#000000" stroke-width="0.75"></path><path d="M6.855 21.7125h2.2874999999999996v1.1400000000000001H6.855Z" fill="#000000" stroke-width="0.75"></path><path d="M6.855 1.1400000000000001h2.2874999999999996v1.1400000000000001H6.855Z" fill="#000000" stroke-width="0.75"></path><path d="M4.574999999999999 20.565h2.2800000000000002v1.1475H4.574999999999999Z" fill="#000000" stroke-width="0.75"></path><path d="M4.574999999999999 2.2800000000000002h2.2800000000000002v1.1475H4.574999999999999Z" fill="#000000" stroke-width="0.75"></path><path d="M3.4275 19.424999999999997H4.574999999999999v1.1400000000000001H3.4275Z" fill="#000000" stroke-width="0.75"></path><path d="M3.4275 3.4275H4.574999999999999v1.1400000000000001H3.4275Z" fill="#000000" stroke-width="0.75"></path><path d="M2.2874999999999996 17.137500000000003h1.1400000000000001v2.2874999999999996H2.2874999999999996Z" fill="#000000" stroke-width="0.75"></path><path d="m2.2874999999999996 11.4225 1.1400000000000001 0 0 1.1475 1.1475 0 0 1.1400000000000001 4.5675 0 0 -1.1400000000000001 1.1475 0 0 -1.1475 1.1400000000000001 0 0 -1.1400000000000001 2.2874999999999996 0 0 1.1400000000000001 1.1400000000000001 0 0 1.1475 1.1400000000000001 0 0 1.1400000000000001 4.574999999999999 0 0 -1.1400000000000001 1.1400000000000001 0 0 -3.4275 1.1475 0 0 -2.2874999999999996 -1.1475 0 0 1.1400000000000001 -19.424999999999997 0 0 -1.1400000000000001 -1.1400000000000001 0 0 2.2874999999999996 1.1400000000000001 0 0 2.2800000000000002z" fill="#000000" stroke-width="0.75"></path><path d="M2.2874999999999996 4.5675h1.1400000000000001v2.2874999999999996H2.2874999999999996Z" fill="#000000" stroke-width="0.75"></path><path d="M1.1475 14.857499999999998h1.1400000000000001v2.2800000000000002H1.1475Z" fill="#000000" stroke-width="0.75"></path><path d="M0 9.1425h1.1475v5.715H0Z" fill="#000000" stroke-width="0.75"></path></g></svg>