<svg xmlns="http://www.w3.org/2000/svg" viewBox="0 0 24 24" id="Entertainment-Events-Hobbies-Chess-Knight--Streamline-Pixel" height="24" width="24"><desc>Entertainment Events Hobbies Chess Knight Streamline Icon: https://streamlinehq.com</desc><title>entertainment-events-hobbies-chess-knight</title><g><path d="M20.0025 19.995h1.1400000000000001v2.2874999999999996h-1.1400000000000001Z" fill="#000000" stroke-width="0.75"></path><path d="M18.862499999999997 7.425000000000001h1.1400000000000001v2.2874999999999996h-1.1400000000000001Z" fill="#000000" stroke-width="0.75"></path><path d="M5.1450000000000005 22.2825h14.857499999999998v1.1475H5.1450000000000005Z" fill="#000000" stroke-width="0.75"></path><path d="M17.715 9.712499999999999h1.1475v1.1400000000000001h-1.1475Z" fill="#000000" stroke-width="0.75"></path><path d="M17.715 6.285h1.1475V7.425000000000001h-1.1475Z" fill="#000000" stroke-width="0.75"></path><path d="M16.575000000000003 13.14h1.1400000000000001v2.2874999999999996H16.575000000000003Z" fill="#000000" stroke-width="0.75"></path><path d="M16.575000000000003 5.1450000000000005h1.1400000000000001v1.1400000000000001H16.575000000000003Z" fill="#000000" stroke-width="0.75"></path><path d="m14.287500000000001 10.852500000000001 0 1.1475 1.1400000000000001 0 0 1.1400000000000001 1.1475 0 0 -1.1400000000000001 1.1400000000000001 0 0 -1.1475 -3.4275 0z" fill="#000000" stroke-width="0.75"></path><path d="M15.4275 7.425000000000001h1.1475v1.1475h-1.1475Z" fill="#000000" stroke-width="0.75"></path><path d="M15.4275 2.8575h1.1475v2.2874999999999996h-1.1475Z" fill="#000000" stroke-width="0.75"></path><path d="M14.287500000000001 1.71h1.1400000000000001v1.1475h-1.1400000000000001Z" fill="#000000" stroke-width="0.75"></path><path d="M13.1475 9.712499999999999h1.1400000000000001v1.1400000000000001h-1.1400000000000001Z" fill="#000000" stroke-width="0.75"></path><path d="M13.1475 5.1450000000000005h1.1400000000000001v1.1400000000000001h-1.1400000000000001Z" fill="#000000" stroke-width="0.75"></path><path d="M13.1475 0.5700000000000001h1.1400000000000001v1.1400000000000001h-1.1400000000000001Z" fill="#000000" stroke-width="0.75"></path><path d="M12 8.5725h1.1475v1.1400000000000001H12Z" fill="#000000" stroke-width="0.75"></path><path d="M12 3.9975h1.1475v1.1475H12Z" fill="#000000" stroke-width="0.75"></path><path d="M10.86 5.1450000000000005H12v1.1400000000000001h-1.1400000000000001Z" fill="#000000" stroke-width="0.75"></path><path d="M10.86 1.71h2.2874999999999996v1.1475h-2.2874999999999996Z" fill="#000000" stroke-width="0.75"></path><path d="M9.72 0.5700000000000001h1.1400000000000001v1.1400000000000001h-1.1400000000000001Z" fill="#000000" stroke-width="0.75"></path><path d="M8.5725 15.4275h1.1475v-2.2874999999999996h-1.1475V12H7.4325V6.285h1.1400000000000001V5.1450000000000005h1.1475V1.71H7.4325v1.1475H5.1450000000000005v1.1400000000000001H4.005v1.1475H2.8575V12h1.1475v1.1400000000000001h1.1400000000000001v1.1475h2.2874999999999996v2.2800000000000002h1.1400000000000001ZM6.285 12H5.1450000000000005v-1.1475h1.1400000000000001Zm0 -3.4275H4.005V7.425000000000001h2.2800000000000002Zm0 -3.4275V3.9975h1.1475v1.1475Z" fill="#000000" stroke-width="0.75"></path><path d="m20.0025 19.995 0 -1.1400000000000001 -1.1400000000000001 0 0 -3.4275 -1.1475 0 0 3.4275 -10.2825 0 0 -2.2874999999999996 -1.1475 0 0 2.2874999999999996 -1.1400000000000001 0 0 1.1400000000000001 14.857499999999998 0z" fill="#000000" stroke-width="0.75"></path><path d="M4.005 19.995h1.1400000000000001v2.2874999999999996H4.005Z" fill="#000000" stroke-width="0.75"></path></g></svg>