<svg xmlns="http://www.w3.org/2000/svg" viewBox="0 0 24 24" id="Interface-Essential-Skull-1--Streamline-Pixel" height="24" width="24"><desc>Interface Essential Skull 1 Streamline Icon: https://streamlinehq.com</desc><title>interface-essential-skull-1</title><g><path d="M21.71625 5.1450000000000005h1.1400000000000001v10.2825h-1.1400000000000001Z" fill="#000000" stroke-width="0.75"></path><path d="M20.576249999999998 15.4275h1.1400000000000001v1.1400000000000001h-1.1400000000000001Z" fill="#000000" stroke-width="0.75"></path><path d="M20.576249999999998 3.9975h1.1400000000000001v1.1475h-1.1400000000000001Z" fill="#000000" stroke-width="0.75"></path><path d="M19.42875 16.5675h1.1475v1.1475h-1.1475Z" fill="#000000" stroke-width="0.75"></path><path d="M19.42875 2.8575h1.1475v1.1400000000000001h-1.1475Z" fill="#000000" stroke-width="0.75"></path><path d="M18.28875 17.715h1.1400000000000001v4.5675h-1.1400000000000001Z" fill="#000000" stroke-width="0.75"></path><path d="m18.28875 9.712499999999999 -2.2874999999999996 0 0 1.1400000000000001 -1.1400000000000001 0 0 2.2874999999999996 1.1400000000000001 0 0 1.1475 2.2874999999999996 0 0 -1.1475 1.1400000000000001 0 0 -2.2874999999999996 -1.1400000000000001 0 0 -1.1400000000000001z" fill="#000000" stroke-width="0.75"></path><path d="M17.14125 1.71h2.2874999999999996v1.1475h-2.2874999999999996Z" fill="#000000" stroke-width="0.75"></path><path d="M14.861250000000002 22.2825h3.4275v1.1475h-3.4275Z" fill="#000000" stroke-width="0.75"></path><path d="M13.713750000000001 18.855h1.1475v3.4275h-1.1475Z" fill="#000000" stroke-width="0.75"></path><path d="M10.286249999999999 22.2825h3.4275v1.1475h-3.4275Z" fill="#000000" stroke-width="0.75"></path><path d="M10.286249999999999 15.4275h3.4275v1.1400000000000001h-3.4275Z" fill="#000000" stroke-width="0.75"></path><path d="M9.14625 18.855h1.1400000000000001v3.4275h-1.1400000000000001Z" fill="#000000" stroke-width="0.75"></path><path d="M6.85875 0.5700000000000001h10.2825v1.1400000000000001H6.85875Z" fill="#000000" stroke-width="0.75"></path><path d="M5.71875 22.2825h3.4275v1.1475h-3.4275Z" fill="#000000" stroke-width="0.75"></path><path d="m7.998749999999999 9.712499999999999 -2.2800000000000002 0 0 1.1400000000000001 -1.1475 0 0 2.2874999999999996 1.1475 0 0 1.1475 2.2800000000000002 0 0 -1.1475 1.1475 0 0 -2.2874999999999996 -1.1475 0 0 -1.1400000000000001z" fill="#000000" stroke-width="0.75"></path><path d="M4.57125 1.71h2.2874999999999996v1.1475h-2.2874999999999996Z" fill="#000000" stroke-width="0.75"></path><path d="M4.57125 17.715h1.1475v4.5675h-1.1475Z" fill="#000000" stroke-width="0.75"></path><path d="M3.4312500000000004 16.5675h1.1400000000000001v1.1475h-1.1400000000000001Z" fill="#000000" stroke-width="0.75"></path><path d="M3.4312500000000004 2.8575h1.1400000000000001v1.1400000000000001h-1.1400000000000001Z" fill="#000000" stroke-width="0.75"></path><path d="M2.2912500000000002 15.4275h1.1400000000000001v1.1400000000000001h-1.1400000000000001Z" fill="#000000" stroke-width="0.75"></path><path d="M2.2912500000000002 3.9975h1.1400000000000001v1.1475h-1.1400000000000001Z" fill="#000000" stroke-width="0.75"></path><path d="M1.1437499999999998 5.1450000000000005h1.1475v10.2825h-1.1475Z" fill="#000000" stroke-width="0.75"></path></g></svg>