<svg xmlns="http://www.w3.org/2000/svg" viewBox="0 0 24 24" id="Pet-Animals-Rabbit-1--Streamline-Pixel" height="24" width="24"><desc>Pet Animals Rabbit 1 Streamline Icon: https://streamlinehq.com</desc><title>pet-animals-rabbit-1</title><g><path d="m22.86 1.1475 0 1.1400000000000001 -3.4275 0 0 1.1400000000000001 -1.1475 0 0 1.1475 -1.1400000000000001 0 0 2.2874999999999996 1.1400000000000001 0 0 3.4275 1.1475 0 0 -3.4275 1.1400000000000001 0 0 -1.1475 2.2874999999999996 0 0 -1.1400000000000001 1.1400000000000001 0 0 -3.4275 -1.1400000000000001 0z" fill="#000000" stroke-width="0.75"></path><path d="M21.7125 14.857499999999998h1.1475v4.574999999999999h-1.1475Z" fill="#000000" stroke-width="0.75"></path><path d="M20.572499999999998 19.4325h1.1400000000000001v1.1400000000000001h-1.1400000000000001Z" fill="#000000" stroke-width="0.75"></path><path d="M20.572499999999998 12.57h1.1400000000000001v2.2874999999999996h-1.1400000000000001Z" fill="#000000" stroke-width="0.75"></path><path d="M19.4325 20.572499999999998h1.1400000000000001v1.1475h-1.1400000000000001Z" fill="#000000" stroke-width="0.75"></path><path d="M19.4325 10.290000000000001h1.1400000000000001v2.2800000000000002h-1.1400000000000001Z" fill="#000000" stroke-width="0.75"></path><path d="M18.285 0h4.574999999999999v1.1475h-4.574999999999999Z" fill="#000000" stroke-width="0.75"></path><path d="M17.145 21.72h2.2874999999999996v1.1400000000000001h-2.2874999999999996Z" fill="#000000" stroke-width="0.75"></path><path d="M16.005 14.857499999999998h3.4275v1.1475h-3.4275Z" fill="#000000" stroke-width="0.75"></path><path d="M17.145 1.1475h1.1400000000000001v1.1400000000000001h-1.1400000000000001Z" fill="#000000" stroke-width="0.75"></path><path d="M16.005 17.145h2.2800000000000002v1.1400000000000001h-2.2800000000000002Z" fill="#000000" stroke-width="0.75"></path><path d="M16.005 11.43h1.1400000000000001v1.1400000000000001h-1.1400000000000001Z" fill="#000000" stroke-width="0.75"></path><path d="M16.005 2.2874999999999996h1.1400000000000001v1.1400000000000001h-1.1400000000000001Z" fill="#000000" stroke-width="0.75"></path><path d="M6.862500000000001 22.86h10.2825V24H6.862500000000001Z" fill="#000000" stroke-width="0.75"></path><path d="M14.857499999999998 3.4275h1.1475v3.435h-1.1475Z" fill="#000000" stroke-width="0.75"></path><path d="m10.290000000000001 13.7175 0 1.1400000000000001 1.1400000000000001 0 0 1.1475 1.1400000000000001 0 0 -1.1475 1.1475 0 0 -1.1400000000000001 -3.4275 0z" fill="#000000" stroke-width="0.75"></path><path d="M9.1425 6.862500000000001h5.715v1.1400000000000001h-5.715Z" fill="#000000" stroke-width="0.75"></path><path d="M8.0025 3.4275h1.1400000000000001v3.435h-1.1400000000000001Z" fill="#000000" stroke-width="0.75"></path><path d="M6.862500000000001 11.43h1.1400000000000001v1.1400000000000001H6.862500000000001Z" fill="#000000" stroke-width="0.75"></path><path d="M6.862500000000001 2.2874999999999996h1.1400000000000001v1.1400000000000001H6.862500000000001Z" fill="#000000" stroke-width="0.75"></path><path d="M4.574999999999999 21.72h2.2874999999999996v1.1400000000000001H4.574999999999999Z" fill="#000000" stroke-width="0.75"></path><path d="M5.715 17.145h2.2874999999999996v1.1400000000000001H5.715Z" fill="#000000" stroke-width="0.75"></path><path d="M4.574999999999999 14.857499999999998h3.4275v1.1475H4.574999999999999Z" fill="#000000" stroke-width="0.75"></path><path d="M5.715 1.1475h1.1475v1.1400000000000001H5.715Z" fill="#000000" stroke-width="0.75"></path><path d="m5.715 6.862500000000001 1.1475 0 0 -2.2874999999999996 -1.1475 0 0 -1.1475 -1.1400000000000001 0 0 -1.1400000000000001 -3.4275 0 0 -1.1400000000000001 -1.1475 0L0 4.574999999999999l1.1475 0 0 1.1400000000000001 2.2800000000000002 0 0 1.1475 1.1475 0 0 3.4275 1.1400000000000001 0 0 -3.4275z" fill="#000000" stroke-width="0.75"></path><path d="M3.4275 20.572499999999998H4.574999999999999v1.1475H3.4275Z" fill="#000000" stroke-width="0.75"></path><path d="M3.4275 10.290000000000001H4.574999999999999v2.2800000000000002H3.4275Z" fill="#000000" stroke-width="0.75"></path><path d="M2.2874999999999996 19.4325h1.1400000000000001v1.1400000000000001H2.2874999999999996Z" fill="#000000" stroke-width="0.75"></path><path d="M2.2874999999999996 12.57h1.1400000000000001v2.2874999999999996H2.2874999999999996Z" fill="#000000" stroke-width="0.75"></path><path d="M1.1475 0h4.5675v1.1475H1.1475Z" fill="#000000" stroke-width="0.75"></path><path d="M1.1475 14.857499999999998h1.1400000000000001v4.574999999999999H1.1475Z" fill="#000000" stroke-width="0.75"></path></g></svg>