<svg xmlns="http://www.w3.org/2000/svg" viewBox="0 0 24 24" id="Pet-Animals-Frog-Face--Streamline-Pixel" height="24" width="24"><desc>Pet Animals Frog Face Streamline Icon: https://streamlinehq.com</desc><title>pet-animals-frog-face</title><g><path d="M22.86 11.43H24v5.715h-1.1400000000000001Z" fill="#000000" stroke-width="0.75"></path><path d="M21.7125 17.145h1.1475v2.2800000000000002h-1.1475Z" fill="#000000" stroke-width="0.75"></path><path d="M21.7125 10.2825h1.1475v1.1475h-1.1475Z" fill="#000000" stroke-width="0.75"></path><path d="M21.7125 3.4275h1.1475v5.715h-1.1475Z" fill="#000000" stroke-width="0.75"></path><path d="M20.572499999999998 19.424999999999997h1.1400000000000001v1.1475h-1.1400000000000001Z" fill="#000000" stroke-width="0.75"></path><path d="M20.572499999999998 9.1425h1.1400000000000001v1.1400000000000001h-1.1400000000000001Z" fill="#000000" stroke-width="0.75"></path><path d="M20.572499999999998 2.2874999999999996h1.1400000000000001v1.1400000000000001h-1.1400000000000001Z" fill="#000000" stroke-width="0.75"></path><path d="M20.572499999999998 4.5675h-1.1400000000000001V3.4275h-3.4275v1.1400000000000001h-1.1475v3.435h1.1475v1.1400000000000001h3.4275v-1.1400000000000001h1.1400000000000001Zm-2.2874999999999996 1.1475h-1.1400000000000001V4.5675h1.1400000000000001Z" fill="#000000" stroke-width="0.75"></path><path d="M18.285 20.572499999999998h2.2874999999999996v1.1400000000000001h-2.2874999999999996Z" fill="#000000" stroke-width="0.75"></path><path d="M5.715 21.7125h12.57v1.1475H5.715Z" fill="#000000" stroke-width="0.75"></path><path d="M14.857499999999998 1.1400000000000001h5.715v1.1475h-5.715Z" fill="#000000" stroke-width="0.75"></path><path d="M13.7175 11.43h1.1400000000000001v1.1400000000000001h-1.1400000000000001Z" fill="#000000" stroke-width="0.75"></path><path d="M13.7175 2.2874999999999996h1.1400000000000001v1.1400000000000001h-1.1400000000000001Z" fill="#000000" stroke-width="0.75"></path><path d="M12.57 9.1425h1.1475v1.1400000000000001h-1.1475Z" fill="#000000" stroke-width="0.75"></path><path d="M12.57 3.4275h1.1475v2.2874999999999996h-1.1475Z" fill="#000000" stroke-width="0.75"></path><path d="M11.43 12.57h2.2874999999999996v1.1400000000000001h-2.2874999999999996Z" fill="#000000" stroke-width="0.75"></path><path d="M11.43 5.715h1.1400000000000001v1.1400000000000001h-1.1400000000000001Z" fill="#000000" stroke-width="0.75"></path><path d="M10.290000000000001 9.1425h1.1400000000000001v1.1400000000000001h-1.1400000000000001Z" fill="#000000" stroke-width="0.75"></path><path d="M10.290000000000001 3.4275h1.1400000000000001v2.2874999999999996h-1.1400000000000001Z" fill="#000000" stroke-width="0.75"></path><path d="M9.1425 2.2874999999999996h1.1475v1.1400000000000001h-1.1475Z" fill="#000000" stroke-width="0.75"></path><path d="M8.0025 3.4275H4.574999999999999v1.1400000000000001H3.4275v3.435H4.574999999999999v1.1400000000000001h3.4275v-1.1400000000000001h1.1400000000000001V4.5675h-1.1400000000000001ZM6.862500000000001 5.715H5.715V4.5675h1.1475Z" fill="#000000" stroke-width="0.75"></path><path d="M3.4275 20.572499999999998h2.2874999999999996v1.1400000000000001H3.4275Z" fill="#000000" stroke-width="0.75"></path><path d="M3.4275 1.1400000000000001h5.715v1.1475H3.4275Z" fill="#000000" stroke-width="0.75"></path><path d="M2.2874999999999996 19.424999999999997h1.1400000000000001v1.1475H2.2874999999999996Z" fill="#000000" stroke-width="0.75"></path><path d="M2.2874999999999996 9.1425h1.1400000000000001v1.1400000000000001H2.2874999999999996Z" fill="#000000" stroke-width="0.75"></path><path d="M2.2874999999999996 2.2874999999999996h1.1400000000000001v1.1400000000000001H2.2874999999999996Z" fill="#000000" stroke-width="0.75"></path><path d="M1.1475 17.145h1.1400000000000001v2.2800000000000002H1.1475Z" fill="#000000" stroke-width="0.75"></path><path d="M1.1475 10.2825h1.1400000000000001v1.1475H1.1475Z" fill="#000000" stroke-width="0.75"></path><path d="M1.1475 3.4275h1.1400000000000001v5.715H1.1475Z" fill="#000000" stroke-width="0.75"></path><path d="M0 11.43h1.1475v5.715H0Z" fill="#000000" stroke-width="0.75"></path></g></svg>