<svg xmlns="http://www.w3.org/2000/svg" viewBox="0 0 24 24" id="Technology-Robot-Ai--Streamline-Pixel" height="24" width="24"><desc>Technology Robot Ai Streamline Icon: https://streamlinehq.com</desc><title>technology-robot-ai</title><g><path d="m22.8525 13.71 0 -7.995 -1.1400000000000001 0 0 6.855 -1.1400000000000001 0 0 -1.1400000000000001 -1.1475 0 0 9.1425 1.1475 0 0 -1.1475 2.2800000000000002 0 0 -1.1400000000000001 1.1475 0 0 -4.574999999999999 -1.1475 0z" fill="#000000" stroke-width="0.75"></path><path d="M18.285 9.1425h1.1400000000000001v2.2874999999999996h-1.1400000000000001Z" fill="#000000" stroke-width="0.75"></path><path d="m4.5675 20.572499999999998 0 1.1400000000000001 1.1475 0 0 1.1475 1.1400000000000001 0 0 -1.1475 10.2825 0 0 1.1475 1.1475 0 0 -1.1475 1.1400000000000001 0 0 -1.1400000000000001 -14.857499999999998 0z" fill="#000000" stroke-width="0.75"></path><path d="M17.137500000000003 13.71h1.1475v2.2874999999999996h-1.1475Z" fill="#000000" stroke-width="0.75"></path><path d="M17.137500000000003 8.0025h1.1475v1.1400000000000001h-1.1475Z" fill="#000000" stroke-width="0.75"></path><path d="M14.857499999999998 12.57h2.2800000000000002v1.1400000000000001h-2.2800000000000002Z" fill="#000000" stroke-width="0.75"></path><path d="M6.855 22.86h10.2825V24H6.855Z" fill="#000000" stroke-width="0.75"></path><path d="M14.857499999999998 15.997499999999999h2.2800000000000002v1.1475h-2.2800000000000002Z" fill="#000000" stroke-width="0.75"></path><path d="M13.71 13.71h1.1475v2.2874999999999996h-1.1475Z" fill="#000000" stroke-width="0.75"></path><path d="M13.71 1.1400000000000001h1.1475v1.1475h-1.1475Z" fill="#000000" stroke-width="0.75"></path><path d="M10.2825 18.285h3.4275v1.1400000000000001h-3.4275Z" fill="#000000" stroke-width="0.75"></path><path d="M10.2825 0h3.4275v1.1400000000000001h-3.4275Z" fill="#000000" stroke-width="0.75"></path><path d="M9.1425 13.71h1.1400000000000001v2.2874999999999996h-1.1400000000000001Z" fill="#000000" stroke-width="0.75"></path><path d="M9.1425 1.1400000000000001h1.1400000000000001v1.1475h-1.1400000000000001Z" fill="#000000" stroke-width="0.75"></path><path d="M6.855 12.57h2.2874999999999996v1.1400000000000001H6.855Z" fill="#000000" stroke-width="0.75"></path><path d="m17.137500000000003 8.0025 0 -1.1475 -4.5675 0 0 -3.4275 1.1400000000000001 0 0 -1.1400000000000001 -3.4275 0 0 1.1400000000000001 1.1400000000000001 0 0 3.4275 -4.5675 0 0 1.1475 10.2825 0z" fill="#000000" stroke-width="0.75"></path><path d="M6.855 15.997499999999999h2.2874999999999996v1.1475H6.855Z" fill="#000000" stroke-width="0.75"></path><path d="M5.715 13.71h1.1400000000000001v2.2874999999999996H5.715Z" fill="#000000" stroke-width="0.75"></path><path d="M5.715 8.0025h1.1400000000000001v1.1400000000000001H5.715Z" fill="#000000" stroke-width="0.75"></path><path d="M4.5675 9.1425h1.1475v2.2874999999999996H4.5675Z" fill="#000000" stroke-width="0.75"></path><path d="m4.5675 11.43 -1.1400000000000001 0 0 1.1400000000000001 -1.1475 0 0 -6.855 -1.1400000000000001 0 0 7.995 -1.1400000000000001 0 0 4.574999999999999 1.1400000000000001 0 0 1.1400000000000001 2.2874999999999996 0 0 1.1475 1.1400000000000001 0 0 -9.1425z" fill="#000000" stroke-width="0.75"></path></g></svg>