<svg xmlns="http://www.w3.org/2000/svg" viewBox="0 0 24 24" id="Design-Color-Painting-Palette--Streamline-Pixel" height="24" width="24"><desc>Design Color Painting Palette Streamline Icon: https://streamlinehq.com</desc><title>design-color-painting-palette</title><g><path d="M22.29 6.285h1.1400000000000001V12h-1.1400000000000001Z" fill="#000000" stroke-width="0.75"></path><path d="M21.142500000000002 12h1.1475v2.2874999999999996h-1.1475Z" fill="#000000" stroke-width="0.75"></path><path d="M21.142500000000002 3.9975h1.1475v2.2874999999999996h-1.1475Z" fill="#000000" stroke-width="0.75"></path><path d="M20.0025 14.287500000000001h1.1400000000000001v1.1400000000000001h-1.1400000000000001Z" fill="#000000" stroke-width="0.75"></path><path d="M20.0025 2.8575h1.1400000000000001v1.1400000000000001h-1.1400000000000001Z" fill="#000000" stroke-width="0.75"></path><path d="M18.855 15.4275h1.1475v1.1475h-1.1475Z" fill="#000000" stroke-width="0.75"></path><path d="M18.855 8.5725h1.1475v4.5675h-1.1475Z" fill="#000000" stroke-width="0.75"></path><path d="M17.715 16.575000000000003h1.1400000000000001v1.1400000000000001h-1.1400000000000001Z" fill="#000000" stroke-width="0.75"></path><path d="M17.715 13.14h1.1400000000000001v1.1475h-1.1400000000000001Z" fill="#000000" stroke-width="0.75"></path><path d="M17.715 1.7175h2.2874999999999996v1.1400000000000001h-2.2874999999999996Z" fill="#000000" stroke-width="0.75"></path><path d="M16.575000000000003 17.715h1.1400000000000001v1.1400000000000001H16.575000000000003Z" fill="#000000" stroke-width="0.75"></path><path d="M16.575000000000003 14.287500000000001h1.1400000000000001v1.1400000000000001H16.575000000000003Z" fill="#000000" stroke-width="0.75"></path><path d="M15.4275 7.4325h3.4275v1.1400000000000001h-3.4275Z" fill="#000000" stroke-width="0.75"></path><path d="M15.4275 18.855h1.1475v1.1475h-1.1475Z" fill="#000000" stroke-width="0.75"></path><path d="M14.287500000000001 20.0025h1.1400000000000001v1.1400000000000001h-1.1400000000000001Z" fill="#000000" stroke-width="0.75"></path><path d="M12 15.4275h4.574999999999999v1.1475H12Z" fill="#000000" stroke-width="0.75"></path><path d="M14.287500000000001 8.5725h1.1400000000000001v1.1400000000000001h-1.1400000000000001Z" fill="#000000" stroke-width="0.75"></path><path d="m14.287500000000001 6.285 2.2874999999999996 0 0 -1.1400000000000001 1.1400000000000001 0 0 -1.1475 -1.1400000000000001 0 0 -1.1400000000000001 -2.2874999999999996 0 0 1.1400000000000001 -1.1400000000000001 0 0 1.1475 1.1400000000000001 0 0 1.1400000000000001z" fill="#000000" stroke-width="0.75"></path><path d="M13.1475 21.142500000000002h1.1400000000000001v1.1400000000000001h-1.1400000000000001Z" fill="#000000" stroke-width="0.75"></path><path d="M13.1475 9.712499999999999h1.1400000000000001v1.1475h-1.1400000000000001Z" fill="#000000" stroke-width="0.75"></path><path d="M12 10.86h1.1475V12H12Z" fill="#000000" stroke-width="0.75"></path><path d="M6.285 22.2825h6.862500000000001v1.1475H6.285Z" fill="#000000" stroke-width="0.75"></path><path d="M10.86 12H12v3.4275h-1.1400000000000001Z" fill="#000000" stroke-width="0.75"></path><path d="M9.712499999999999 0.5700000000000001h8.0025v1.1475H9.712499999999999Z" fill="#000000" stroke-width="0.75"></path><path d="m10.86 16.575000000000003 -2.2874999999999996 0 0 1.1400000000000001 -1.1400000000000001 0 0 2.2874999999999996 1.1400000000000001 0 0 1.1400000000000001 2.2874999999999996 0 0 -1.1400000000000001 1.1400000000000001 0 0 -2.2874999999999996 -1.1400000000000001 0 0 -1.1400000000000001z" fill="#000000" stroke-width="0.75"></path><path d="M7.4325 1.7175h2.2800000000000002v1.1400000000000001H7.4325Z" fill="#000000" stroke-width="0.75"></path><path d="m7.4325 9.712499999999999 2.2800000000000002 0 0 -1.1400000000000001 1.1475 0 0 -2.2874999999999996 -1.1475 0 0 -1.1400000000000001 -2.2800000000000002 0 0 1.1400000000000001 -1.1475 0 0 2.2874999999999996 1.1475 0 0 1.1400000000000001z" fill="#000000" stroke-width="0.75"></path><path d="m4.005 15.4275 2.2800000000000002 0 0 -1.1400000000000001 1.1475 0 0 -2.2874999999999996 -1.1475 0 0 -1.1400000000000001 -2.2800000000000002 0 0 1.1400000000000001 -1.1475 0 0 2.2874999999999996 1.1475 0 0 1.1400000000000001z" fill="#000000" stroke-width="0.75"></path><path d="M5.1450000000000005 2.8575h2.2874999999999996v1.1400000000000001H5.1450000000000005Z" fill="#000000" stroke-width="0.75"></path><path d="M5.1450000000000005 21.142500000000002h1.1400000000000001v1.1400000000000001H5.1450000000000005Z" fill="#000000" stroke-width="0.75"></path><path d="M2.8575 20.0025h2.2874999999999996v1.1400000000000001H2.8575Z" fill="#000000" stroke-width="0.75"></path><path d="M4.005 3.9975h1.1400000000000001v1.1475H4.005Z" fill="#000000" stroke-width="0.75"></path><path d="M2.8575 5.1450000000000005h1.1475v2.2874999999999996H2.8575Z" fill="#000000" stroke-width="0.75"></path><path d="M1.7175 17.715h1.1400000000000001v2.2874999999999996H1.7175Z" fill="#000000" stroke-width="0.75"></path><path d="M1.7175 7.4325h1.1400000000000001v2.2800000000000002H1.7175Z" fill="#000000" stroke-width="0.75"></path><path d="M0.5700000000000001 9.712499999999999h1.1475v8.0025H0.5700000000000001Z" fill="#000000" stroke-width="0.75"></path></g></svg>