<svg xmlns="http://www.w3.org/2000/svg" viewBox="0 0 24 24" id="Interface-Essential-Information-Circle-2--Streamline-Pixel" height="24" width="24"><desc>Interface Essential Information Circle 2 Streamline Icon: https://streamlinehq.com</desc><title>interface-essential-information-circle-2</title><path d="M22.86 6.855h-1.1475V4.5675h-1.1400000000000001V3.4275H19.424999999999997V2.2874999999999996h-2.2800000000000002V1.1400000000000001h-2.2874999999999996V0h-5.715v1.1400000000000001H6.855v1.1475H4.5675v1.1400000000000001H3.4275v1.1400000000000001H2.2874999999999996v2.2874999999999996H1.1400000000000001v2.2874999999999996H0v5.715h1.1400000000000001v2.2874999999999996h1.1475v2.2800000000000002h1.1400000000000001v1.1475h1.1400000000000001v1.1400000000000001h2.2874999999999996v1.1475h2.2874999999999996V24h5.715v-1.1400000000000001h2.2874999999999996v-1.1475h2.2800000000000002v-1.1400000000000001h1.1475V19.424999999999997h1.1400000000000001v-2.2800000000000002h1.1475v-2.2874999999999996H24v-5.715h-1.1400000000000001ZM9.1425 4.5675h1.1400000000000001V3.4275h3.435v1.1400000000000001h1.1400000000000001v3.435h-1.1400000000000001v1.1400000000000001h-3.435v-1.1400000000000001h-1.1400000000000001ZM17.145 19.424999999999997h-1.1475v1.1475h-5.715V19.424999999999997h-1.1400000000000001V11.43h1.1400000000000001v-1.1475h3.435v1.1475h1.1400000000000001v5.715h1.1400000000000001v1.1400000000000001h1.1475Z" fill="#3bff6f" stroke-width="0.75"></path></svg>
