<svg xmlns="http://www.w3.org/2000/svg" viewBox="0 0 24 24" id="Interface-Essential-Lock--Streamline-Pixel" height="24" width="24"><desc>Interface Essential Lock Streamline Icon: https://streamlinehq.com</desc><title>interface-essential-lock</title><g><path d="M19.42875 10.2825h1.1400000000000001v11.43h-1.1400000000000001Z" fill="grey" stroke-width="0.75"></path><path d="M18.28125 21.7125h1.1475v1.1475h-1.1475Z" fill="grey" stroke-width="0.75"></path><path d="M5.71125 22.86h12.57V24H5.71125Z" fill="grey" stroke-width="0.75"></path><path d="M16.00125 1.1400000000000001h1.1400000000000001v1.1475h-1.1400000000000001Z" fill="grey" stroke-width="0.75"></path><path d="m13.713750000000001 14.857499999999998 -1.1400000000000001 0 0 -1.1400000000000001 1.1400000000000001 0 0 -1.1475 -3.4275 0 0 1.1475 -1.1475 0 0 2.2800000000000002 1.1475 0 0 1.1475 1.1400000000000001 0 0 3.4275 1.1475 0 0 -3.4275 1.1400000000000001 0 0 -1.1475 1.1400000000000001 0 0 -2.2800000000000002 -1.1400000000000001 0 0 1.1400000000000001z" fill="grey" stroke-width="0.75"></path><path d="M7.998749999999999 0h8.0025v1.1400000000000001h-8.0025Z" fill="grey" stroke-width="0.75"></path><path d="M6.85875 1.1400000000000001h1.1400000000000001v1.1475h-1.1400000000000001Z" fill="grey" stroke-width="0.75"></path><path d="m19.42875 10.2825 0 -1.1400000000000001 -1.1475 0 0 -6.855 -1.1400000000000001 0 0 6.855 -10.2825 0 0 -6.855 -1.1475 0 0 6.855 -1.1400000000000001 0 0 1.1400000000000001 14.857499999999998 0z" fill="grey" stroke-width="0.75"></path><path d="M4.57125 21.7125h1.1400000000000001v1.1475h-1.1400000000000001Z" fill="grey" stroke-width="0.75"></path><path d="M3.4312500000000004 10.2825h1.1400000000000001v11.43h-1.1400000000000001Z" fill="grey" stroke-width="0.75"></path></g></svg>
