<svg xmlns="http://www.w3.org/2000/svg" viewBox="0 0 24 24" id="Single-User-Shield--Streamline-Pixel" height="24" width="24"><desc>Single User Shield Streamline Icon: https://streamlinehq.com</desc><title>single-user-shield</title><g><path d="M20.572499999999998 3.4275h1.1400000000000001v12.57h-1.1400000000000001Z" fill="grey" stroke-width="0.75"></path><path d="M19.424999999999997 15.997499999999999h1.1475v2.2874999999999996H19.424999999999997Z" fill="grey" stroke-width="0.75"></path><path d="M18.285 18.285h1.1400000000000001v1.1475h-1.1400000000000001Z" fill="grey" stroke-width="0.75"></path><path d="M18.285 2.2874999999999996h2.2874999999999996v1.1400000000000001h-2.2874999999999996Z" fill="grey" stroke-width="0.75"></path><path d="M17.145 19.4325h1.1400000000000001v1.1400000000000001h-1.1400000000000001Z" fill="grey" stroke-width="0.75"></path><path d="M15.997499999999999 20.572499999999998h1.1475v1.1400000000000001h-1.1475Z" fill="grey" stroke-width="0.75"></path><path d="M15.997499999999999 15.997499999999999h1.1475v1.1475h-1.1475Z" fill="grey" stroke-width="0.75"></path><path d="m17.145 5.715 -1.1475 0 0 -1.1400000000000001 -7.995 0 0 1.1400000000000001 -1.1475 0 0 1.1400000000000001 -1.1400000000000001 0 0 9.1425 1.1400000000000001 0 0 -4.5675 1.1475 0 0 -1.1400000000000001 7.995 0 0 1.1400000000000001 1.1475 0 0 4.5675 1.1400000000000001 0 0 -9.1425 -1.1400000000000001 0 0 -1.1400000000000001z" fill="grey" stroke-width="0.75"></path><path d="M15.997499999999999 1.1475h2.2874999999999996v1.1400000000000001h-2.2874999999999996Z" fill="grey" stroke-width="0.75"></path><path d="M14.857499999999998 17.145h1.1400000000000001v1.1400000000000001h-1.1400000000000001Z" fill="grey" stroke-width="0.75"></path><path d="M14.857499999999998 12.57h1.1400000000000001v2.2874999999999996h-1.1400000000000001Z" fill="grey" stroke-width="0.75"></path><path d="M13.7175 21.7125h2.2800000000000002v1.1475h-2.2800000000000002Z" fill="grey" stroke-width="0.75"></path><path d="M9.1425 18.285h5.715v1.1475h-5.715Z" fill="grey" stroke-width="0.75"></path><path d="M10.2825 22.86h3.435V24h-3.435Z" fill="grey" stroke-width="0.75"></path><path d="M10.2825 15.997499999999999h3.435v1.1475h-3.435Z" fill="grey" stroke-width="0.75"></path><path d="M8.0025 21.7125h2.2800000000000002v1.1475h-2.2800000000000002Z" fill="grey" stroke-width="0.75"></path><path d="M8.0025 0h7.995v1.1475H8.0025Z" fill="grey" stroke-width="0.75"></path><path d="M8.0025 17.145h1.1400000000000001v1.1400000000000001h-1.1400000000000001Z" fill="grey" stroke-width="0.75"></path><path d="M8.0025 12.57h1.1400000000000001v2.2874999999999996h-1.1400000000000001Z" fill="grey" stroke-width="0.75"></path><path d="M6.855 20.572499999999998h1.1475v1.1400000000000001H6.855Z" fill="grey" stroke-width="0.75"></path><path d="M6.855 15.997499999999999h1.1475v1.1475H6.855Z" fill="grey" stroke-width="0.75"></path><path d="M5.715 1.1475h2.2874999999999996v1.1400000000000001H5.715Z" fill="grey" stroke-width="0.75"></path><path d="M5.715 19.4325h1.1400000000000001v1.1400000000000001H5.715Z" fill="grey" stroke-width="0.75"></path><path d="M4.5675 18.285h1.1475v1.1475H4.5675Z" fill="grey" stroke-width="0.75"></path><path d="M3.4275 2.2874999999999996h2.2874999999999996v1.1400000000000001H3.4275Z" fill="grey" stroke-width="0.75"></path><path d="M3.4275 15.997499999999999h1.1400000000000001v2.2874999999999996H3.4275Z" fill="grey" stroke-width="0.75"></path><path d="M2.2874999999999996 3.4275h1.1400000000000001v12.57H2.2874999999999996Z" fill="grey" stroke-width="0.75"></path></g></svg>
