<svg xmlns="http://www.w3.org/2000/svg" viewBox="0 0 24 24" id="Interface-Essential-Wifi-Feed--Streamline-Pixel" height="24" width="24"><desc>Interface Essential Wifi Feed Streamline Icon: https://streamlinehq.com</desc><title>interface-essential-wifi-feed</title><g><path d="m21.71625 11.42625 -1.1400000000000001 0 0 -2.2874999999999996 -1.1475 0 0 -1.1400000000000001 -1.1400000000000001 0 0 -1.1400000000000001 -1.1475 0 0 -1.1475 -1.1400000000000001 0 0 -1.1400000000000001 -1.1400000000000001 0 0 -1.1400000000000001 -2.2874999999999996 0 0 -1.1475 -3.4275 0 0 -1.1400000000000001 -6.855 0 0 2.2874999999999996 6.855 0 0 1.1400000000000001 3.4275 0 0 1.1400000000000001 2.2874999999999996 0 0 1.1475 1.1400000000000001 0 0 1.1400000000000001 1.1400000000000001 0 0 1.1400000000000001 1.1475 0 0 2.2874999999999996 1.1400000000000001 0 0 3.4275 1.1475 0 0 6.862500000000001 2.2800000000000002 0 0 -6.862500000000001 -1.1400000000000001 0 0 -3.4275z" fill="#4dff4d" stroke-width="0.75"></path><path d="m2.2912500000000002 5.71125 0 2.2874999999999996 5.7075000000000005 0 0 1.1400000000000001 2.2874999999999996 0 0 1.1475 2.2874999999999996 0 0 1.1400000000000001 1.1400000000000001 0 0 2.2874999999999996 1.1475 0 0 2.2874999999999996 1.1400000000000001 0 0 5.715 2.2874999999999996 0 0 -5.715 -1.1475 0 0 -2.2874999999999996 -1.1400000000000001 0 0 -2.2874999999999996 -1.1400000000000001 0 0 -1.1400000000000001 -1.1475 0 0 -1.1475 -1.1400000000000001 0 0 -1.1400000000000001 -2.2874999999999996 0 0 -1.1400000000000001 -2.2874999999999996 0 0 -1.1475 -5.7075000000000005 0z" fill="#4dff4d" stroke-width="0.75"></path><path d="m2.2912500000000002 12.57375 4.5675 0 0 1.1400000000000001 2.2874999999999996 0 0 1.1400000000000001 1.1400000000000001 0 0 2.2874999999999996 1.1475 0 0 4.574999999999999 2.2800000000000002 0 0 -4.574999999999999 -1.1400000000000001 0 0 -2.2874999999999996 -1.1400000000000001 0 0 -1.1400000000000001 -1.1475 0 0 -1.1400000000000001 -1.1400000000000001 0 0 -1.1475 -2.2874999999999996 0 0 -1.1400000000000001 -4.5675 0 0 2.2874999999999996z" fill="#4dff4d" stroke-width="0.75"></path><path d="m2.2912500000000002 18.28125 -1.1475 0 0 3.435 1.1475 0 0 1.1400000000000001 3.4275 0 0 -1.1400000000000001 1.1400000000000001 0 0 -3.435 -1.1400000000000001 0 0 -1.1400000000000001 -3.4275 0 0 1.1400000000000001z" fill="#4dff4d" stroke-width="0.75"></path></g></svg>
