<svg xmlns="http://www.w3.org/2000/svg" viewBox="0 0 24 24" id="Interface-Essential-Wrench-1--Streamline-Pixel" height="24" width="24"><desc>Interface Essential Wrench 1 Streamline Icon: https://streamlinehq.com</desc><title>interface-essential-wench-1</title><g><path d="m22.86 19.424999999999997 -1.1475 0 0 1.1475 2.2874999999999996 0 0 -4.574999999999999 -1.1400000000000001 0 0 3.4275z" fill="grey" stroke-width="0.75"></path><path d="M21.7125 14.857499999999998h1.1475v1.1400000000000001h-1.1475Z" fill="grey" stroke-width="0.75"></path><path d="M20.572499999999998 18.285h1.1400000000000001v1.1400000000000001h-1.1400000000000001Z" fill="grey" stroke-width="0.75"></path><path d="m17.145 17.145 0 3.4275 1.1400000000000001 0 0 1.1400000000000001 1.1475 0 0 1.1475 -3.4275 0 0 1.1400000000000001 4.5675 0 0 -3.4275 -1.1400000000000001 0 0 -2.2874999999999996 1.1400000000000001 0 0 -1.1400000000000001 -3.4275 0z" fill="grey" stroke-width="0.75"></path><path d="M14.857499999999998 21.7125h1.1475v1.1475h-1.1475Z" fill="grey" stroke-width="0.75"></path><path d="M14.857499999999998 14.857499999999998h1.1475v1.1400000000000001h-1.1475Z" fill="grey" stroke-width="0.75"></path><path d="M13.7175 17.145h1.1400000000000001v4.5675h-1.1400000000000001Z" fill="grey" stroke-width="0.75"></path><path d="M13.7175 13.71h1.1400000000000001v1.1475h-1.1400000000000001Z" fill="grey" stroke-width="0.75"></path><path d="M12.57 15.997499999999999h1.1475v1.1475h-1.1475Z" fill="grey" stroke-width="0.75"></path><path d="M12.57 12.57h1.1475v1.1400000000000001h-1.1475Z" fill="grey" stroke-width="0.75"></path><path d="M11.43 14.857499999999998h1.1400000000000001v1.1400000000000001h-1.1400000000000001Z" fill="grey" stroke-width="0.75"></path><path d="M11.43 11.43h1.1400000000000001v1.1400000000000001h-1.1400000000000001Z" fill="grey" stroke-width="0.75"></path><path d="M10.290000000000001 13.71h1.1400000000000001v1.1475h-1.1400000000000001Z" fill="grey" stroke-width="0.75"></path><path d="M10.290000000000001 10.2825h1.1400000000000001v1.1475h-1.1400000000000001Z" fill="grey" stroke-width="0.75"></path><path d="M9.1425 12.57h1.1475v1.1400000000000001h-1.1475Z" fill="grey" stroke-width="0.75"></path><path d="M9.1425 9.1425h1.1475v1.1400000000000001h-1.1475Z" fill="grey" stroke-width="0.75"></path><path d="M8.0025 11.43h1.1400000000000001v1.1400000000000001h-1.1400000000000001Z" fill="grey" stroke-width="0.75"></path><path d="M8.0025 8.0025h1.1400000000000001v1.1400000000000001h-1.1400000000000001Z" fill="grey" stroke-width="0.75"></path><path d="M6.862500000000001 10.2825h1.1400000000000001v1.1475H6.862500000000001Z" fill="grey" stroke-width="0.75"></path><path d="M2.2874999999999996 9.1425h4.574999999999999v1.1400000000000001h-4.574999999999999Z" fill="grey" stroke-width="0.75"></path><path d="M4.574999999999999 2.2874999999999996h1.1400000000000001v1.1400000000000001H4.574999999999999Z" fill="grey" stroke-width="0.75"></path><path d="m8.0025 1.1400000000000001 0 1.1475 1.1400000000000001 0 0 4.5675 1.1475 0 0 1.1475 1.1400000000000001 0 0 1.1400000000000001 1.1400000000000001 0 0 1.1400000000000001 1.1475 0 0 1.1475 1.1400000000000001 0 0 1.1400000000000001 1.1475 0 0 1.1400000000000001 1.1400000000000001 0 0 1.1475 4.5675 0 0 -1.1475 -3.4275 0 0 -1.1400000000000001 -1.1400000000000001 0 0 -1.1400000000000001 -1.1400000000000001 0 0 -1.1475 -1.1475 0 0 -1.1400000000000001 -1.1400000000000001 0 0 -1.1400000000000001 -1.1475 0 0 -1.1475 -1.1400000000000001 0 0 -4.5675 -1.1400000000000001 0 0 -1.1475 -1.1475 0 0 -1.1400000000000001 -5.715 0 0 2.2874999999999996 1.1475 0 0 -1.1475 3.4275 0z" fill="grey" stroke-width="0.75"></path><path d="M1.1475 8.0025h1.1400000000000001v1.1400000000000001H1.1475Z" fill="grey" stroke-width="0.75"></path><path d="m1.1475 4.5675 1.1400000000000001 0 0 1.1475 1.1400000000000001 0 0 1.1400000000000001 3.435 0 0 -3.4275 -1.1475 0 0 2.2874999999999996 -1.1400000000000001 0 0 -1.1475 -1.1475 0 0 -1.1400000000000001 -3.4275 0 0 4.574999999999999 1.1475 0 0 -3.435z" fill="grey" stroke-width="0.75"></path></g></svg>
