<svg xmlns="http://www.w3.org/2000/svg" viewBox="0 0 24 24" id="Interface-Essential-Navigation-Left-Circle-2--Streamline-Pixel" height="24" width="24"><desc>Interface Essential Navigation Left Circle 2 Streamline Icon: https://streamlinehq.com</desc><title>interface-essential-navigation-left-circle-2</title><g><path d="M22.86 9.1425H24v5.715h-1.1400000000000001Z" fill="white" stroke-width="0.75"></path><path d="M21.7125 14.857499999999998h1.1475v2.2874999999999996h-1.1475Z" fill="white" stroke-width="0.75"></path><path d="M21.7125 6.855h1.1475v2.2874999999999996h-1.1475Z" fill="white" stroke-width="0.75"></path><path d="M20.572499999999998 17.145h1.1400000000000001v2.2800000000000002h-1.1400000000000001Z" fill="white" stroke-width="0.75"></path><path d="M20.572499999999998 4.5675h1.1400000000000001v2.2874999999999996h-1.1400000000000001Z" fill="white" stroke-width="0.75"></path><path d="M19.424999999999997 19.424999999999997h1.1475v1.1475H19.424999999999997Z" fill="white" stroke-width="0.75"></path><path d="M19.424999999999997 3.4275h1.1475v1.1400000000000001H19.424999999999997Z" fill="white" stroke-width="0.75"></path><path d="M17.145 20.572499999999998h2.2800000000000002v1.1400000000000001h-2.2800000000000002Z" fill="white" stroke-width="0.75"></path><path d="m18.285 9.1425 -1.1400000000000001 0 0 -1.1400000000000001 -6.862500000000001 0 0 -2.2874999999999996 -1.1400000000000001 0 0 1.1400000000000001 -1.1400000000000001 0 0 1.1475 -1.1475 0 0 1.1400000000000001 -1.1400000000000001 0 0 1.1400000000000001 -1.1475 0 0 1.1475 1.1475 0 0 1.1400000000000001 1.1400000000000001 0 0 1.1475 1.1475 0 0 1.1400000000000001 1.1400000000000001 0 0 1.1400000000000001 1.1400000000000001 0 0 -2.2800000000000002 4.574999999999999 0 0 1.1400000000000001 1.1400000000000001 0 0 1.1400000000000001 -1.1400000000000001 0 0 1.1475 -1.1400000000000001 0 0 1.1400000000000001 2.2800000000000002 0 0 -1.1400000000000001 2.2874999999999996 0 0 -1.1475 1.1400000000000001 0 0 -5.715 -1.1400000000000001 0 0 -1.1400000000000001z" fill="white" stroke-width="0.75"></path><path d="M17.145 2.2874999999999996h2.2800000000000002v1.1400000000000001h-2.2800000000000002Z" fill="white" stroke-width="0.75"></path><path d="M14.857499999999998 21.7125h2.2874999999999996v1.1475h-2.2874999999999996Z" fill="white" stroke-width="0.75"></path><path d="M14.857499999999998 1.1400000000000001h2.2874999999999996v1.1475h-2.2874999999999996Z" fill="white" stroke-width="0.75"></path><path d="M9.1425 22.86h5.715V24h-5.715Z" fill="white" stroke-width="0.75"></path><path d="M9.1425 0h5.715v1.1400000000000001h-5.715Z" fill="white" stroke-width="0.75"></path><path d="M6.855 21.7125h2.2874999999999996v1.1475H6.855Z" fill="white" stroke-width="0.75"></path><path d="M6.855 1.1400000000000001h2.2874999999999996v1.1475H6.855Z" fill="white" stroke-width="0.75"></path><path d="M4.5675 20.572499999999998h2.2874999999999996v1.1400000000000001H4.5675Z" fill="white" stroke-width="0.75"></path><path d="M4.5675 2.2874999999999996h2.2874999999999996v1.1400000000000001H4.5675Z" fill="white" stroke-width="0.75"></path><path d="M3.4275 19.424999999999997h1.1400000000000001v1.1475H3.4275Z" fill="white" stroke-width="0.75"></path><path d="M3.4275 3.4275h1.1400000000000001v1.1400000000000001H3.4275Z" fill="white" stroke-width="0.75"></path><path d="M2.2874999999999996 17.145h1.1400000000000001v2.2800000000000002H2.2874999999999996Z" fill="white" stroke-width="0.75"></path><path d="M2.2874999999999996 4.5675h1.1400000000000001v2.2874999999999996H2.2874999999999996Z" fill="white" stroke-width="0.75"></path><path d="M1.1400000000000001 14.857499999999998h1.1475v2.2874999999999996H1.1400000000000001Z" fill="white" stroke-width="0.75"></path><path d="M1.1400000000000001 6.855h1.1475v2.2874999999999996H1.1400000000000001Z" fill="white" stroke-width="0.75"></path><path d="M0 9.1425h1.1400000000000001v5.715H0Z" fill="white" stroke-width="0.75"></path></g></svg>
