<svg xmlns="http://www.w3.org/2000/svg" viewBox="0 0 24 24" id="Business-Products-Magic-Rabbit--Streamline-Pixel" height="24" width="24"><desc>Business Products Magic Rabbit Streamline Icon: https://streamlinehq.com</desc><title>business-products-magic-rabbit</title><g><path d="M22.856250000000003 9.1425h-1.1400000000000001v2.2874999999999996h-1.1475v-1.1400000000000001h-1.1400000000000001v-1.1475h2.2874999999999996v-1.1400000000000001h-2.2874999999999996V6.855h-1.1400000000000001v4.574999999999999h-1.1475v1.1400000000000001H6.85875v-1.1400000000000001h-1.1475v-4.574999999999999H4.574999999999999v1.1475H2.28375v1.1400000000000001H4.574999999999999v1.1475H3.4312500000000004v1.1400000000000001h-1.1475v-2.2874999999999996h-1.1400000000000001v3.4275h1.1400000000000001v1.1475H4.574999999999999v7.995h1.1400000000000001v1.1475h1.1475V24h10.2825v-1.1400000000000001h1.1475v-1.1475h1.1400000000000001V13.7175h2.2874999999999996v-1.1475h1.1400000000000001Zm-4.5675 6.862500000000001H5.71125v-1.1475h12.5775Z" fill="#000000" stroke-width="0.75"></path><path d="M17.14125 5.715h1.1475v1.1400000000000001h-1.1475Z" fill="#000000" stroke-width="0.75"></path><path d="M17.14125 1.1475h1.1475v2.2800000000000002h-1.1475Z" fill="#000000" stroke-width="0.75"></path><path d="M16.00125 3.4275h1.1400000000000001v2.2874999999999996h-1.1400000000000001Z" fill="#000000" stroke-width="0.75"></path><path d="M14.85375 0h2.2874999999999996v1.1475h-2.2874999999999996Z" fill="#000000" stroke-width="0.75"></path><path d="M14.85375 8.0025h1.1475v1.1400000000000001h-1.1475Z" fill="#000000" stroke-width="0.75"></path><path d="M13.713750000000001 1.1475h1.1400000000000001v2.2800000000000002h-1.1400000000000001Z" fill="#000000" stroke-width="0.75"></path><path d="M12.57375 3.4275h1.1400000000000001V4.574999999999999h-1.1400000000000001Z" fill="#000000" stroke-width="0.75"></path><path d="m11.42625 11.43 1.1475 0 0 -1.1400000000000001 1.1400000000000001 0 0 -1.1475 -3.4275 0 0 1.1475 1.1400000000000001 0 0 1.1400000000000001z" fill="#000000" stroke-width="0.75"></path><path d="M11.42625 4.574999999999999h1.1475v1.1400000000000001h-1.1475Z" fill="#000000" stroke-width="0.75"></path><path d="M10.286249999999999 3.4275h1.1400000000000001V4.574999999999999h-1.1400000000000001Z" fill="#000000" stroke-width="0.75"></path><path d="M9.13875 1.1475h1.1475v2.2800000000000002h-1.1475Z" fill="#000000" stroke-width="0.75"></path><path d="M7.998749999999999 8.0025h1.1400000000000001v1.1400000000000001h-1.1400000000000001Z" fill="#000000" stroke-width="0.75"></path><path d="M6.85875 0h2.2800000000000002v1.1475h-2.2800000000000002Z" fill="#000000" stroke-width="0.75"></path><path d="M6.85875 3.4275h1.1400000000000001v2.2874999999999996h-1.1400000000000001Z" fill="#000000" stroke-width="0.75"></path><path d="M5.71125 5.715h1.1475v1.1400000000000001h-1.1475Z" fill="#000000" stroke-width="0.75"></path><path d="M5.71125 1.1475h1.1475v2.2800000000000002h-1.1475Z" fill="#000000" stroke-width="0.75"></path></g></svg>