<svg xmlns="http://www.w3.org/2000/svg" viewBox="0 0 24 24" id="Food-Drink-Bread--Streamline-Pixel" height="24" width="24"><desc>Food Drink Bread Streamline Icon: https://streamlinehq.com</desc><title>food-drink-bread</title><g><path d="m22.8525 3.4275 -1.1400000000000001 0 0 -1.1400000000000001 -1.1475 0 0 -1.1475 -2.2800000000000002 0 0 -1.1400000000000001L5.7075000000000005 0l0 1.1400000000000001 8.0025 0 0 1.1475 2.2874999999999996 0 0 1.1400000000000001 1.1400000000000001 0 0 1.1475 1.1475 0 0 5.7075000000000005 -1.1475 0 0 1.1475 -1.1400000000000001 0 0 11.43 -12.57 0 0 1.1400000000000001 15.997499999999999 0 0 -1.1400000000000001 1.1400000000000001 0 0 -1.1475 1.1475 0 0 -1.1400000000000001 1.1400000000000001 0 0 -10.290000000000001 1.1475 0 0 -5.7075000000000005 -1.1475 0 0 -1.1475z" fill="#000000" stroke-width="0.75"></path><path d="M11.4225 15.997499999999999h1.1475v1.1475h-1.1475Z" fill="#000000" stroke-width="0.75"></path><path d="M10.2825 13.7175h1.1400000000000001v1.1400000000000001h-1.1400000000000001Z" fill="#000000" stroke-width="0.75"></path><path d="M6.855 17.145h4.5675v1.1400000000000001H6.855Z" fill="#000000" stroke-width="0.75"></path><path d="M6.855 13.7175h1.1400000000000001v1.1400000000000001H6.855Z" fill="#000000" stroke-width="0.75"></path><path d="M5.7075000000000005 15.997499999999999h1.1475v1.1475H5.7075000000000005Z" fill="#000000" stroke-width="0.75"></path><path d="M3.4275 1.1400000000000001h2.2800000000000002v1.1475H3.4275Z" fill="#000000" stroke-width="0.75"></path><path d="M2.2800000000000002 11.43h1.1475v11.43H2.2800000000000002Z" fill="#000000" stroke-width="0.75"></path><path d="M2.2800000000000002 2.2874999999999996h1.1475v1.1400000000000001H2.2800000000000002Z" fill="#000000" stroke-width="0.75"></path><path d="M1.1400000000000001 10.2825h1.1400000000000001v1.1475H1.1400000000000001Z" fill="#000000" stroke-width="0.75"></path><path d="M1.1400000000000001 3.4275h1.1400000000000001V4.574999999999999H1.1400000000000001Z" fill="#000000" stroke-width="0.75"></path><path d="M0 4.574999999999999h1.1400000000000001v5.7075000000000005H0Z" fill="#000000" stroke-width="0.75"></path></g></svg>