<svg xmlns="http://www.w3.org/2000/svg" viewBox="0 0 24 24" id="Pet-Animals-Buffalo--Streamline-Pixel" height="24" width="24"><desc>Pet Animals Buffalo Streamline Icon: https://streamlinehq.com</desc><title>pet-animals-buffalo</title><g><path d="m21.7125 12.57 0 1.1475 2.2874999999999996 0 0 -3.4275 -1.1400000000000001 0 0 2.2800000000000002 -1.1475 0z" fill="#000000" stroke-width="0.75"></path><path d="M22.86 1.1475H24v5.715h-1.1400000000000001Z" fill="#000000" stroke-width="0.75"></path><path d="M21.7125 9.1425h1.1475v1.1475h-1.1475Z" fill="#000000" stroke-width="0.75"></path><path d="M20.572499999999998 16.005h1.1400000000000001v4.5675h-1.1400000000000001Z" fill="#000000" stroke-width="0.75"></path><path d="m20.572499999999998 8.0025 -4.5675 0 0 1.1400000000000001 2.2800000000000002 0 0 5.715 1.1475 0 0 -2.2874999999999996 2.2800000000000002 0 0 -1.1400000000000001 -2.2800000000000002 0 0 -2.2874999999999996 2.2800000000000002 0 0 -1.1400000000000001 1.1475 0 0 -1.1400000000000001 -2.2874999999999996 0 0 1.1400000000000001z" fill="#000000" stroke-width="0.75"></path><path d="m21.7125 1.1475 1.1475 0 0 -1.1475 -3.4275 0 0 1.1475 1.1400000000000001 0 0 2.2800000000000002 1.1400000000000001 0 0 -2.2800000000000002z" fill="#000000" stroke-width="0.75"></path><path d="M19.4325 14.857499999999998h1.1400000000000001v1.1475h-1.1400000000000001Z" fill="#000000" stroke-width="0.75"></path><path d="M18.285 20.572499999999998h2.2874999999999996v1.1475h-2.2874999999999996Z" fill="#000000" stroke-width="0.75"></path><path d="M18.285 3.4275h2.2874999999999996V4.574999999999999h-2.2874999999999996Z" fill="#000000" stroke-width="0.75"></path><path d="M16.005 21.72h2.2800000000000002v1.1400000000000001h-2.2800000000000002Z" fill="#000000" stroke-width="0.75"></path><path d="M16.005 2.2874999999999996h2.2800000000000002v1.1400000000000001h-2.2800000000000002Z" fill="#000000" stroke-width="0.75"></path><path d="m13.7175 11.43 0 1.1400000000000001 1.1400000000000001 0 0 1.1475 1.1475 0 0 -1.1475 1.1400000000000001 0 0 -1.1400000000000001 -3.4275 0z" fill="#000000" stroke-width="0.75"></path><path d="M13.7175 1.1475h2.2874999999999996v1.1400000000000001h-2.2874999999999996Z" fill="#000000" stroke-width="0.75"></path><path d="M8.0025 22.86h8.0025V24H8.0025Z" fill="#000000" stroke-width="0.75"></path><path d="m8.0025 16.005 0 3.4275 1.1400000000000001 0 0 -2.2874999999999996 1.1475 0 0 2.2874999999999996 -1.1475 0 0 1.1400000000000001 5.715 0 0 -1.1400000000000001 -1.1400000000000001 0 0 -2.2874999999999996 1.1400000000000001 0 0 2.2874999999999996 1.1475 0 0 -3.4275 -8.0025 0z" fill="#000000" stroke-width="0.75"></path><path d="M13.7175 6.862500000000001h2.2874999999999996v1.1400000000000001h-2.2874999999999996Z" fill="#000000" stroke-width="0.75"></path><path d="M12.57 5.715h1.1475v1.1475h-1.1475Z" fill="#000000" stroke-width="0.75"></path><path d="M12.57 2.2874999999999996h1.1475v1.1400000000000001h-1.1475Z" fill="#000000" stroke-width="0.75"></path><path d="M11.43 3.4275h1.1400000000000001v2.2874999999999996h-1.1400000000000001Z" fill="#000000" stroke-width="0.75"></path><path d="M10.290000000000001 5.715h1.1400000000000001v1.1475h-1.1400000000000001Z" fill="#000000" stroke-width="0.75"></path><path d="M10.290000000000001 2.2874999999999996h1.1400000000000001v1.1400000000000001h-1.1400000000000001Z" fill="#000000" stroke-width="0.75"></path><path d="M8.0025 1.1475h2.2874999999999996v1.1400000000000001h-2.2874999999999996Z" fill="#000000" stroke-width="0.75"></path><path d="m8.0025 13.7175 1.1400000000000001 0 0 -1.1475 1.1475 0 0 -1.1400000000000001 -3.4275 0 0 1.1400000000000001 1.1400000000000001 0 0 1.1475z" fill="#000000" stroke-width="0.75"></path><path d="M8.0025 6.862500000000001h2.2874999999999996v1.1400000000000001h-2.2874999999999996Z" fill="#000000" stroke-width="0.75"></path><path d="M5.715 21.72h2.2874999999999996v1.1400000000000001H5.715Z" fill="#000000" stroke-width="0.75"></path><path d="M5.715 2.2874999999999996h2.2874999999999996v1.1400000000000001H5.715Z" fill="#000000" stroke-width="0.75"></path><path d="M3.4275 20.572499999999998h2.2874999999999996v1.1475H3.4275Z" fill="#000000" stroke-width="0.75"></path><path d="m5.715 9.1425 2.2874999999999996 0 0 -1.1400000000000001 -4.574999999999999 0 0 -1.1400000000000001 -2.2800000000000002 0 0 1.1400000000000001 1.1400000000000001 0 0 1.1400000000000001 2.2874999999999996 0 0 2.2874999999999996 -2.2874999999999996 0 0 1.1400000000000001 2.2874999999999996 0 0 2.2874999999999996 1.1400000000000001 0 0 -5.715z" fill="#000000" stroke-width="0.75"></path><path d="M3.4275 14.857499999999998H4.574999999999999v1.1475H3.4275Z" fill="#000000" stroke-width="0.75"></path><path d="M3.4275 3.4275h2.2874999999999996V4.574999999999999H3.4275Z" fill="#000000" stroke-width="0.75"></path><path d="M2.2874999999999996 16.005h1.1400000000000001v4.5675H2.2874999999999996Z" fill="#000000" stroke-width="0.75"></path><path d="m2.2874999999999996 3.4275 1.1400000000000001 0 0 -2.2800000000000002 1.1475 0L4.574999999999999 0 1.1475 0l0 1.1475 1.1400000000000001 0 0 2.2800000000000002z" fill="#000000" stroke-width="0.75"></path><path d="M1.1475 9.1425h1.1400000000000001v1.1475H1.1475Z" fill="#000000" stroke-width="0.75"></path><path d="m1.1475 10.290000000000001 -1.1475 0 0 3.4275 2.2874999999999996 0 0 -1.1475 -1.1400000000000001 0 0 -2.2800000000000002z" fill="#000000" stroke-width="0.75"></path><path d="M0 1.1475h1.1475v5.715H0Z" fill="#000000" stroke-width="0.75"></path></g></svg>